<svg xmlns="http://www.w3.org/2000/svg" viewBox="0 0 1054.82 273"><defs><style>.cls-1{fill:#05f;}.cls-2{fill:#fff;}.cls-3{font-size:150px;font-family:Molot;letter-spacing:-0.01em;}</style></defs><g id="레이어_2" data-name="레이어 2"><g id="레이어_1-2" data-name="레이어 1"><path class="cls-1" d="M20,73A20.06,20.06,0,0,0,0,93V253a20.06,20.06,0,0,0,20,20H180a20.06,20.06,0,0,0,20-20V93a20.06,20.06,0,0,0-20-20ZM175,228a20.06,20.06,0,0,1-20,20H45a20.06,20.06,0,0,1-20-20V118A20.06,20.06,0,0,1,45,98H155a20.06,20.06,0,0,1,20,20Z"/><path class="cls-1" d="M95,0A20.06,20.06,0,0,0,75,20V180a20.06,20.06,0,0,0,20,20H255a20.06,20.06,0,0,0,20-20V20A20.06,20.06,0,0,0,255,0ZM250,155a20.06,20.06,0,0,1-20,20H120a20.06,20.06,0,0,1-20-20V45a20.06,20.06,0,0,1,20-20H230a20.06,20.06,0,0,1,20,20Z"/><rect class="cls-2" x="214" y="25" width="36" height="150" rx="7.84"/><rect class="cls-2" x="100" y="25" width="20" height="150" rx="5.84"/><rect class="cls-2" x="155" y="98" width="20" height="150" rx="5.84"/><rect class="cls-2" x="25" y="98" width="20" height="150" rx="5.84"/><rect class="cls-2" x="55" y="7" width="20" height="150" rx="5.84"/><rect class="cls-2" x="100" y="25" width="150" height="20" rx="5.84"/><rect class="cls-2" x="25" y="228" width="150" height="20" rx="5.84"/><rect class="cls-2" x="100" y="155" width="50" height="20" rx="3.37"/><rect class="cls-2" x="25" y="98" width="50" height="20" rx="3.37"/><rect class="cls-2" x="115" y="155" width="50" height="20" rx="3.37"/><rect class="cls-2" x="118" y="98" width="50" height="20" rx="3.37"/><rect class="cls-2" x="200" y="155" width="20" height="20" rx="0.01"/><rect class="cls-2" x="200" y="118" width="20" height="150" rx="5.84"/><text class="cls-3" transform="translate(312.18 199.69)">CONNECTED</text></g></g></svg>
